<?xml version="1.0" encoding="UTF-8"?>
<svg version="1.1" xmlns="http://www.w3.org/2000/svg" width="3235" height="3235">
<path d="M0 0 C5.01181061 0.00460882 10.02337717 -0.00222921 15.03515625 -0.02050781 C51.11815715 -0.15064508 86.99102016 0.90392415 122.99536133 3.31567383 C123.8099242 3.37005489 124.62448708 3.42443596 125.46373367 3.48046494 C134.15115758 4.0662682 142.82511004 4.76483279 151.49536133 5.56567383 C153.19997528 5.7190773 153.19997528 5.7190773 154.93902588 5.87557983 C259.31752955 15.31605974 363.16230901 34.66999675 510.99536133 79.31567383 C511.7428363 79.55717163 512.49031128 79.79866943 513.26043701 80.04748535 C588.86295782 104.48828393 661.94499546 135.34830834 733.19519043 170.43023682 C734.8316437 171.23514722 736.46957408 172.0370528 738.10766602 172.83862305 C749.29173009 178.31171785 760.26209631 184.11144547 771.16723633 190.12036133 C775.20410451 192.34242749 779.25679609 194.53148249 783.32348633 196.69848633 C796.93272815 203.95137083 810.35170759 211.45298073 823.61791992 219.31567383 C826.71893801 221.15198583 829.82407618 222.98105941 832.93057251 224.80807495 C846.7612094 232.94559005 860.53819269 241.10531104 873.92358398 249.96264648 C876.23806805 251.47417968 878.57299431 252.94995894 880.91333008 254.42114258 C909.33251471 272.28769215 936.87725903 291.53974365 963.99536133 311.31567383 C964.76734863 311.87754395 965.53933594 312.43941406 966.3347168 313.01831055 C977.35962332 321.05187553 988.216031 329.27519204 998.94213867 337.70336914 C1000.84872796 339.20052915 1002.7591143 340.69265767 1004.67114258 342.18286133 C1012.92944962 348.62924354 1021.07351535 355.21138416 1029.18676758 361.83911133 C1030.78771613 363.14614924 1032.39134109 364.44990738 1033.99536133 365.75317383 C1039.4367312 370.18219582 1044.81185527 374.68244599 1050.15576172 379.22802734 C1053.6071482 382.15875924 1057.09772323 385.03296613 1060.62036133 387.87817383 C1065.38056186 391.75146655 1069.92340916 395.82327375 1074.44067383 399.97583008 C1076.62233947 401.97402231 1078.82547441 403.93716272 1081.05786133 405.87817383 C1088.79603688 412.6117992 1096.35779297 419.54237881 1103.90942383 426.48364258 C1105.98201432 428.38823861 1108.06045868 430.28612496 1110.14379883 432.17895508 C1115.22135641 436.79881733 1120.20723496 441.4719699 1125.01869202 446.3714447 C1126.82951556 448.15254984 1128.68771105 449.80623999 1130.62207031 451.45068359 C1135.53536168 455.72324294 1140.12101843 460.29764065 1144.71801758 464.90551758 C1145.62233017 465.80887344 1146.52664276 466.71222931 1147.45835876 467.64295959 C1149.35971076 469.5436345 1151.26003686 471.44526991 1153.15869141 473.34863281 C1155.57121994 475.76685775 1157.98821214 478.1805634 1160.40657902 480.59294796 C1162.74200708 482.92385784 1165.07358309 485.25861339 1167.40551758 487.59301758 C1168.26299088 488.44846664 1169.12046417 489.30391571 1170.00392151 490.18528748 C1174.34674031 494.54491278 1178.54740905 498.96548647 1182.54490662 503.64503479 C1184.58004647 505.98911632 1186.77210816 508.15092732 1188.99536133 510.31567383 C1192.45467958 513.73874174 1195.72453878 517.22525985 1198.88598633 520.92114258 C1201.85081891 524.2867766 1204.92617247 527.54533137 1207.99536133 530.81567383 C1212.76079124 535.90267441 1217.47122452 541.01151344 1221.99536133 546.31567383 C1222.87013405 547.33670193 1223.74515832 548.35751454 1224.62036133 549.37817383 C1226.13614822 551.14613002 1227.6514316 552.9145035 1229.16503906 554.68432617 C1232.43110576 558.50122865 1235.71693328 562.30007489 1239.01611328 566.08837891 C1243.95486735 571.7621226 1248.82723848 577.47308818 1253.56176758 583.31958008 C1255.45440817 585.64968495 1257.35824897 587.96842265 1259.27270508 590.28051758 C1266.14623402 598.58299961 1272.93052677 606.93994125 1279.54418945 615.45092773 C1281.11190091 617.4654264 1282.68616942 619.47469441 1284.26098633 621.48364258 C1297.00550633 637.76780538 1309.36519504 654.32088155 1321.41577148 671.12426758 C1322.97690235 673.29006521 1324.55200706 675.4449165 1326.13208008 677.59692383 C1334.41690175 688.90778461 1342.21232515 700.51217973 1349.93823242 712.21020508 C1351.97419445 715.28372003 1354.02319434 718.34807253 1356.07739258 721.40942383 C1393.06101703 776.54167672 1425.78942265 834.22309667 1455.99536133 893.31567383 C1456.7472876 894.78447998 1456.7472876 894.78447998 1457.5144043 896.28295898 C1465.42003212 911.76947535 1472.76870906 927.50292143 1479.99536133 943.31567383 C1480.5079248 944.43200195 1481.02048828 945.54833008 1481.54858398 946.69848633 C1497.79653038 982.15232529 1512.52402829 1018.24138121 1526.06689453 1054.80957031 C1526.97224429 1057.25327668 1527.88107255 1059.69566743 1528.7902832 1062.13793945 C1558.91109054 1143.23217964 1581.76943482 1227.35901722 1597.99536133 1312.31567383 C1598.19476318 1313.35842468 1598.39416504 1314.40117554 1598.59960938 1315.4755249 C1609.79176918 1374.26619855 1617.38619101 1433.55085056 1622.18286133 1493.19067383 C1622.26185669 1494.15728943 1622.34085205 1495.12390503 1622.42224121 1496.11981201 C1623.01952814 1503.51404693 1623.52793755 1510.91214779 1623.99536133 1518.31567383 C1624.06024435 1519.32484171 1624.06024435 1519.32484171 1624.12643814 1520.35439682 C1626.02177722 1550.0048271 1626.34058199 1579.6154962 1626.31103516 1609.3203125 C1626.30642633 1614.33212311 1626.31326437 1619.34368967 1626.33154297 1624.35546875 C1626.46168024 1660.43846965 1625.40711101 1696.31133266 1622.99536133 1732.31567383 C1622.94098026 1733.1302367 1622.8865992 1733.94479958 1622.83057022 1734.78404617 C1622.24476695 1743.47147008 1621.54620237 1752.14542254 1620.74536133 1760.81567383 C1620.64309235 1761.95208313 1620.54082336 1763.08849243 1620.43545532 1764.25933838 C1610.99497541 1868.63784205 1591.6410384 1972.48262151 1546.99536133 2120.31567383 C1546.75386353 2121.0631488 1546.51236572 2121.81062378 1546.2635498 2122.58074951 C1521.82275123 2198.18327032 1490.96272681 2271.26530796 1455.88079834 2342.51550293 C1455.07588793 2344.1519562 1454.27398236 2345.78988658 1453.47241211 2347.42797852 C1447.9993173 2358.61204259 1442.19958968 2369.58240881 1436.19067383 2380.48754883 C1433.96860767 2384.52441701 1431.77955267 2388.57710859 1429.61254883 2392.64379883 C1422.35966433 2406.25304065 1414.85805443 2419.67202009 1406.99536133 2432.93823242 C1405.15904933 2436.03925051 1403.32997574 2439.14438868 1401.50296021 2442.25088501 C1393.36544511 2456.0815219 1385.20572411 2469.85850519 1376.34838867 2483.24389648 C1374.83685548 2485.55838055 1373.36107622 2487.89330681 1371.88989258 2490.23364258 C1354.02334301 2518.65282721 1334.7712915 2546.19757153 1314.99536133 2573.31567383 C1314.43349121 2574.08766113 1313.87162109 2574.85964844 1313.29272461 2575.6550293 C1305.25915963 2586.67993582 1297.03584311 2597.5363435 1288.60766602 2608.26245117 C1287.11050601 2610.16904046 1285.61837749 2612.0794268 1284.12817383 2613.99145508 C1277.68179161 2622.24976212 1271.099651 2630.39382785 1264.47192383 2638.50708008 C1263.16488592 2640.10802863 1261.86112777 2641.71165359 1260.55786133 2643.31567383 C1256.12883934 2648.7570437 1251.62858917 2654.13216777 1247.08300781 2659.47607422 C1244.15227592 2662.9274607 1241.27806902 2666.41803573 1238.43286133 2669.94067383 C1234.55956861 2674.70087436 1230.48776141 2679.24372166 1226.33520508 2683.76098633 C1224.33701284 2685.94265197 1222.37387244 2688.14578691 1220.43286133 2690.37817383 C1213.69923595 2698.11634938 1206.76865635 2705.67810547 1199.82739258 2713.22973633 C1197.92279655 2715.30232682 1196.0249102 2717.38077118 1194.13208008 2719.46411133 C1189.51221782 2724.54166891 1184.83906525 2729.52754746 1179.93959045 2734.33900452 C1178.15848532 2736.14982806 1176.50479516 2738.00802355 1174.86035156 2739.94238281 C1170.58779221 2744.85567418 1166.0133945 2749.44133093 1161.40551758 2754.03833008 C1160.50216171 2754.94264267 1159.59880585 2755.84695526 1158.66807556 2756.77867126 C1156.76740065 2758.68002326 1154.86576525 2760.58034936 1152.96240234 2762.47900391 C1150.54417741 2764.89153244 1148.13047175 2767.30852464 1145.7180872 2769.72689152 C1143.38717731 2772.06231958 1141.05242177 2774.39389559 1138.71801758 2776.72583008 C1137.86256851 2777.58330338 1137.00711945 2778.44077667 1136.12574768 2779.32423401 C1131.76612237 2783.66705281 1127.34554869 2787.86772155 1122.66600037 2791.86521912 C1120.32191884 2793.90035897 1118.16010783 2796.09242066 1115.99536133 2798.31567383 C1112.57229341 2801.77499208 1109.0857753 2805.04485128 1105.38989258 2808.20629883 C1102.02425855 2811.17113141 1098.76570379 2814.24648497 1095.49536133 2817.31567383 C1090.40836075 2822.08110374 1085.29952172 2826.79153702 1079.99536133 2831.31567383 C1078.97433323 2832.19044655 1077.95352062 2833.06547082 1076.93286133 2833.94067383 C1075.16490513 2835.45646072 1073.39653165 2836.9717441 1071.62670898 2838.48535156 C1067.80980651 2841.75141826 1064.01096027 2845.03724578 1060.22265625 2848.33642578 C1054.54891256 2853.27517985 1048.83794698 2858.14755098 1042.99145508 2862.88208008 C1040.6613502 2864.77472067 1038.3426125 2866.67856147 1036.03051758 2868.59301758 C1027.72803555 2875.46654652 1019.37109391 2882.25083927 1010.86010742 2888.86450195 C1008.84560875 2890.43221341 1006.83634075 2892.00648192 1004.82739258 2893.58129883 C988.54322978 2906.32581883 971.99015361 2918.68550754 955.18676758 2930.73608398 C953.02096995 2932.29721485 950.86611865 2933.87231956 948.71411133 2935.45239258 C937.40325055 2943.73721425 925.79885543 2951.53263765 914.10083008 2959.25854492 C911.02731513 2961.29450695 907.96296263 2963.34350684 904.90161133 2965.39770508 C849.76935843 3002.38132953 792.08793848 3035.10973515 732.99536133 3065.31567383 C731.52655518 3066.0676001 731.52655518 3066.0676001 730.02807617 3066.8347168 C714.5415598 3074.74034462 698.80811373 3082.08902156 682.99536133 3089.31567383 C681.8790332 3089.8282373 680.76270508 3090.34080078 679.61254883 3090.86889648 C644.15870987 3107.11684288 608.06965395 3121.84434079 571.50146484 3135.38720703 C569.05775848 3136.29255679 566.61536772 3137.20138505 564.1730957 3138.1105957 C483.07885551 3168.23140304 398.95201794 3191.08974732 313.99536133 3207.31567383 C312.95261047 3207.51507568 311.90985962 3207.71447754 310.83551025 3207.91992188 C252.04483661 3219.11208168 192.7601846 3226.70650351 133.12036133 3231.50317383 C132.15374573 3231.58216919 131.18713013 3231.66116455 130.19122314 3231.74255371 C122.79698822 3232.33984064 115.39888737 3232.84825005 107.99536133 3233.31567383 C106.98619345 3233.38055685 106.98619345 3233.38055685 105.95663834 3233.44675064 C76.30620805 3235.34208972 46.69553896 3235.66089449 16.99072266 3235.63134766 C11.97891204 3235.62673883 6.96734549 3235.63357687 1.95556641 3235.65185547 C-34.12743449 3235.78199274 -70.0002975 3234.72742351 -106.00463867 3232.31567383 C-106.81920155 3232.26129276 -107.63376442 3232.2069117 -108.47301102 3232.15088272 C-117.16043492 3231.56507945 -125.83438739 3230.86651487 -134.50463867 3230.06567383 C-135.64104797 3229.96340485 -136.77745728 3229.86113586 -137.94830322 3229.75576782 C-242.32680689 3220.31528791 -346.17158635 3200.9613509 -494.00463867 3156.31567383 C-494.75211365 3156.07417603 -495.49958862 3155.83267822 -496.26971436 3155.5838623 C-571.87223516 3131.14306373 -644.9542728 3100.28303931 -716.20446777 3065.20111084 C-717.84092104 3064.39620043 -719.47885142 3063.59429486 -721.11694336 3062.79272461 C-732.30100743 3057.3196298 -743.27137365 3051.51990218 -754.17651367 3045.51098633 C-758.21338185 3043.28892017 -762.26607343 3041.09986517 -766.33276367 3038.93286133 C-779.94200549 3031.67997683 -793.36098494 3024.17836693 -806.62719727 3016.31567383 C-809.72821535 3014.47936183 -812.83335353 3012.65028824 -815.93984985 3010.82327271 C-829.77048674 3002.68575761 -843.54747004 2994.52603661 -856.93286133 2985.66870117 C-859.24734539 2984.15716798 -861.58227166 2982.68138872 -863.92260742 2981.21020508 C-892.34179205 2963.34365551 -919.88653637 2944.091604 -947.00463867 2924.31567383 C-947.77662598 2923.75380371 -948.54861328 2923.19193359 -949.34399414 2922.61303711 C-960.36890066 2914.57947213 -971.22530835 2906.35615561 -981.95141602 2897.92797852 C-983.8580053 2896.43081851 -985.76839165 2894.93868999 -987.68041992 2893.44848633 C-995.93872697 2887.00210411 -1004.08279269 2880.4199635 -1012.19604492 2873.79223633 C-1013.79699347 2872.48519842 -1015.40061843 2871.18144027 -1017.00463867 2869.87817383 C-1022.44600855 2865.44915184 -1027.82113262 2860.94890167 -1033.16503906 2856.40332031 C-1036.61642555 2853.47258842 -1040.10700058 2850.59838152 -1043.62963867 2847.75317383 C-1048.3898392 2843.87988111 -1052.93268651 2839.80807391 -1057.44995117 2835.65551758 C-1059.63161682 2833.65732534 -1061.83475176 2831.69418494 -1064.06713867 2829.75317383 C-1071.80531422 2823.01954845 -1079.36707031 2816.08896885 -1086.91870117 2809.14770508 C-1088.99129166 2807.24310905 -1091.06973603 2805.3452227 -1093.15307617 2803.45239258 C-1098.23063376 2798.83253032 -1103.2165123 2794.15937775 -1108.02796936 2789.25990295 C-1109.8387929 2787.47879782 -1111.69698839 2785.82510766 -1113.63134766 2784.18066406 C-1118.54463903 2779.90810471 -1123.13029578 2775.333707 -1127.72729492 2770.72583008 C-1128.63160751 2769.82247421 -1129.5359201 2768.91911835 -1130.46763611 2767.98838806 C-1132.36898811 2766.08771315 -1134.2693142 2764.18607775 -1136.16796875 2762.28271484 C-1138.58049728 2759.86448991 -1140.99748948 2757.45078425 -1143.41585636 2755.0383997 C-1145.75128442 2752.70748981 -1148.08286044 2750.37273427 -1150.41479492 2748.03833008 C-1151.27226822 2747.18288101 -1152.12974152 2746.32743195 -1153.01319885 2745.44606018 C-1157.35601765 2741.08643487 -1161.55668639 2736.66586119 -1165.55418396 2731.98631287 C-1167.58932382 2729.64223134 -1169.78138551 2727.48042033 -1172.00463867 2725.31567383 C-1175.46395693 2721.89260591 -1178.73381613 2718.4060878 -1181.89526367 2714.71020508 C-1184.86009625 2711.34457105 -1187.93544981 2708.08601629 -1191.00463867 2704.81567383 C-1195.77006858 2699.72867325 -1200.48050187 2694.61983422 -1205.00463867 2689.31567383 C-1205.87941139 2688.29464573 -1206.75443566 2687.27383312 -1207.62963867 2686.25317383 C-1209.14542557 2684.48521763 -1210.66070894 2682.71684415 -1212.17431641 2680.94702148 C-1215.4403831 2677.13011901 -1218.72621062 2673.33127277 -1222.02539062 2669.54296875 C-1226.9641447 2663.86922506 -1231.83651582 2658.15825948 -1236.57104492 2652.31176758 C-1238.46368552 2649.9816627 -1240.36752631 2647.662925 -1242.28198242 2645.35083008 C-1249.15551137 2637.04834805 -1255.93980411 2628.69140641 -1262.5534668 2620.18041992 C-1264.12117825 2618.16592125 -1265.69544677 2616.15665325 -1267.27026367 2614.14770508 C-1280.01478368 2597.86354228 -1292.37447238 2581.31046611 -1304.42504883 2564.50708008 C-1305.98617969 2562.34128245 -1307.5612844 2560.18643115 -1309.14135742 2558.03442383 C-1317.42617909 2546.72356305 -1325.2216025 2535.11916793 -1332.94750977 2523.42114258 C-1334.98347179 2520.34762763 -1337.03247168 2517.28327513 -1339.08666992 2514.22192383 C-1376.07029438 2459.08967093 -1408.79869999 2401.40825098 -1439.00463867 2342.31567383 C-1439.75656494 2340.84686768 -1439.75656494 2340.84686768 -1440.52368164 2339.34838867 C-1448.42930947 2323.8618723 -1455.77798641 2308.12842623 -1463.00463867 2292.31567383 C-1463.51720215 2291.1993457 -1464.02976562 2290.08301758 -1464.55786133 2288.93286133 C-1480.80580773 2253.47902237 -1495.53330563 2217.38996645 -1509.07617188 2180.82177734 C-1509.98152164 2178.37807098 -1510.89034989 2175.93568022 -1511.79956055 2173.4934082 C-1541.92036788 2092.39916801 -1564.77871217 2008.27233044 -1581.00463867 1923.31567383 C-1581.20404053 1922.27292297 -1581.40344238 1921.23017212 -1581.60888672 1920.15582275 C-1592.80104652 1861.36514911 -1600.39546835 1802.0804971 -1605.19213867 1742.44067383 C-1605.27113403 1741.47405823 -1605.35012939 1740.50744263 -1605.43151855 1739.51153564 C-1606.02880548 1732.11730072 -1606.53721489 1724.71919987 -1607.00463867 1717.31567383 C-1607.06952169 1716.30650595 -1607.06952169 1716.30650595 -1607.13571548 1715.27695084 C-1609.03105456 1685.62652055 -1609.34985933 1656.01585146 -1609.3203125 1626.31103516 C-1609.31570368 1621.29922454 -1609.32254171 1616.28765799 -1609.34082031 1611.27587891 C-1609.47095758 1575.19287801 -1608.41638835 1539.320015 -1606.00463867 1503.31567383 C-1605.95025761 1502.50111095 -1605.89587654 1501.68654808 -1605.83984756 1500.84730148 C-1605.2540443 1492.15987758 -1604.55547971 1483.48592511 -1603.75463867 1474.81567383 C-1603.6012352 1473.11105988 -1603.6012352 1473.11105988 -1603.44473267 1471.37200928 C-1594.00425276 1366.99350561 -1574.65031575 1263.14872615 -1530.00463867 1115.31567383 C-1529.76314087 1114.56819885 -1529.52164307 1113.82072388 -1529.27282715 1113.05059814 C-1504.83202857 1037.44807734 -1473.97200416 964.3660397 -1438.89007568 893.11584473 C-1438.08516528 891.47939146 -1437.2832597 889.84146108 -1436.48168945 888.20336914 C-1431.00859465 877.01930507 -1425.20886703 866.04893885 -1419.19995117 855.14379883 C-1416.97788501 851.10693065 -1414.78883001 847.05423907 -1412.62182617 842.98754883 C-1405.36894167 829.37830701 -1397.86733177 815.95932756 -1390.00463867 802.69311523 C-1388.16832667 799.59209715 -1386.33925309 796.48695897 -1384.51223755 793.38046265 C-1376.37472245 779.54982576 -1368.21500146 765.77284246 -1359.35766602 752.38745117 C-1357.84613282 750.07296711 -1356.37035356 747.73804084 -1354.89916992 745.39770508 C-1337.03262035 716.97852045 -1317.78056885 689.43377613 -1298.00463867 662.31567383 C-1297.44276855 661.54368652 -1296.88089844 660.77169922 -1296.30200195 659.97631836 C-1288.26843697 648.95141184 -1280.04512046 638.09500415 -1271.61694336 627.36889648 C-1270.11978335 625.4623072 -1268.62765483 623.55192085 -1267.13745117 621.63989258 C-1260.69106896 613.38158553 -1254.10892834 605.23751981 -1247.48120117 597.12426758 C-1246.17416326 595.52331903 -1244.87040512 593.91969407 -1243.56713867 592.31567383 C-1239.13811668 586.87430395 -1234.63786651 581.49917988 -1230.09228516 576.15527344 C-1227.16155326 572.70388695 -1224.28734637 569.21331192 -1221.44213867 565.69067383 C-1217.56884595 560.9304733 -1213.49703875 556.38762599 -1209.34448242 551.87036133 C-1207.34629019 549.68869568 -1205.38314978 547.48556074 -1203.44213867 545.25317383 C-1196.7085133 537.51499828 -1189.77793369 529.95324219 -1182.83666992 522.40161133 C-1180.93207389 520.32902084 -1179.03418754 518.25057647 -1177.14135742 516.16723633 C-1172.52149517 511.08967874 -1167.8483426 506.1038002 -1162.9488678 501.29234314 C-1161.16776266 499.4815196 -1159.51407251 497.62332411 -1157.86962891 495.68896484 C-1153.59706956 490.77567347 -1149.02267185 486.19001672 -1144.41479492 481.59301758 C-1143.51143906 480.68870499 -1142.60808319 479.7843924 -1141.67735291 478.85267639 C-1139.776678 476.95132439 -1137.87504259 475.0509983 -1135.97167969 473.15234375 C-1133.55345475 470.73981522 -1131.1397491 468.32282302 -1128.72736454 465.90445614 C-1126.39645466 463.56902808 -1124.06169911 461.23745206 -1121.72729492 458.90551758 C-1120.87184586 458.04804428 -1120.01639679 457.19057098 -1119.13502502 456.30711365 C-1114.77539972 451.96429485 -1110.35482603 447.76362611 -1105.67527771 443.76612854 C-1103.33119618 441.73098868 -1101.16938518 439.53892699 -1099.00463867 437.31567383 C-1095.58157076 433.85635557 -1092.09505265 430.58649637 -1088.39916992 427.42504883 C-1085.0335359 424.46021625 -1081.77498113 421.38486269 -1078.50463867 418.31567383 C-1073.41763809 413.55024392 -1068.30879906 408.83981063 -1063.00463867 404.31567383 C-1061.98361057 403.44090111 -1060.96279796 402.56587684 -1059.94213867 401.69067383 C-1058.17418248 400.17488693 -1056.405809 398.65960356 -1054.63598633 397.14599609 C-1050.81908385 393.8799294 -1047.02023761 390.59410188 -1043.23193359 387.29492188 C-1037.5581899 382.3561678 -1031.84722432 377.48379668 -1026.00073242 372.74926758 C-1023.67062755 370.85662698 -1021.35188985 368.95278619 -1019.03979492 367.03833008 C-1010.73731289 360.16480113 -1002.38037125 353.38050839 -993.86938477 346.7668457 C-991.8548861 345.19913425 -989.84561809 343.62486573 -987.83666992 342.05004883 C-971.55250712 329.30552882 -954.99943095 316.94584012 -938.19604492 304.89526367 C-936.03024729 303.33413281 -933.875396 301.7590281 -931.72338867 300.17895508 C-920.41252789 291.89413341 -908.80813277 284.09871 -897.11010742 276.37280273 C-894.03659247 274.33684071 -890.97223997 272.28784082 -887.91088867 270.23364258 C-832.77863578 233.25001812 -775.09721583 200.52161251 -716.00463867 170.31567383 C-715.02543457 169.81438965 -714.04623047 169.31310547 -713.03735352 168.79663086 C-697.55083715 160.89100303 -681.81739107 153.54232609 -666.00463867 146.31567383 C-664.88831055 145.80311035 -663.77198242 145.29054687 -662.62182617 144.76245117 C-627.16798721 128.51450477 -591.07893129 113.78700687 -554.51074219 100.24414062 C-552.06703582 99.33879086 -549.62464507 98.42996261 -547.18237305 97.52075195 C-466.08813286 67.39994462 -381.96129528 44.54160033 -297.00463867 28.31567383 C-295.96188782 28.11627197 -294.91913696 27.91687012 -293.8447876 27.71142578 C-235.05411395 16.51926598 -175.76946194 8.92484415 -116.12963867 4.12817383 C-115.16302307 4.04917847 -114.19640747 3.97018311 -113.20050049 3.88879395 C-105.80626557 3.29150702 -98.40816471 2.78309761 -91.00463867 2.31567383 C-90.33186008 2.27241848 -89.6590815 2.22916313 -88.96591568 2.18459702 C-59.3154854 0.28925794 -29.7048163 -0.02954683 0 0 Z " fill="#292C41" transform="translate(1609.004638671875,-0.315673828125)"/>
<path d="M0 0 C1.85670251 -0.00339833 1.85670251 -0.00339833 3.75091416 -0.00686532 C7.17015818 -0.01208533 10.58934945 -0.01285282 14.00859368 -0.01167095 C17.70259673 -0.01146629 21.39659202 -0.01699185 25.09059143 -0.02172852 C32.32091468 -0.03002079 39.55122977 -0.03278269 46.78155737 -0.03334089 C52.65943728 -0.03381663 58.5373145 -0.03587423 64.41519356 -0.03904152 C81.08960987 -0.04784336 97.76401976 -0.0524615 114.43843841 -0.05171105 C115.78569629 -0.05165111 115.78569629 -0.05165111 117.16017151 -0.05158997 C118.05944298 -0.05154909 118.95871445 -0.0515082 119.88523657 -0.05146609 C134.4639094 -0.0510595 149.04255641 -0.06063331 163.62122177 -0.07472833 C178.59983471 -0.08909553 193.57843506 -0.09599836 208.55705506 -0.09513456 C216.96273487 -0.09480276 225.3683876 -0.09754245 233.7740612 -0.10831261 C240.92922421 -0.11742201 248.08434786 -0.11958915 255.23951416 -0.11280318 C258.8882174 -0.10954052 262.53684512 -0.10947219 266.18554115 -0.11815643 C270.14505058 -0.12748339 274.10445003 -0.12123897 278.06396484 -0.11352539 C279.21124965 -0.11866895 280.35853445 -0.12381252 281.54058546 -0.12911195 C292.84492334 -0.08045631 303.4518297 1.72287435 312.15406799 9.54777527 C320.73437831 18.9884419 323.26272346 31.22657054 322.86500549 43.68840027 C321.9378496 55.53987123 319.00241076 66.58463525 315.66578674 77.95793152 C315.37453446 78.95547801 315.37453446 78.95547801 315.0773983 79.97317696 C310.27927148 96.40253797 305.22897266 112.75424171 300.17054367 129.10489655 C298.04059967 135.99360104 295.91774174 142.88449627 293.79345894 149.77494812 C292.97801753 152.41974218 292.1622944 155.06444925 291.34655762 157.70915222 C286.35107349 173.90868327 281.39375114 190.1197602 276.44651413 206.33407974 C274.41753946 212.9836805 272.38760423 219.63298803 270.35719299 226.28215027 C270.12859652 227.03077143 269.90000004 227.77939259 269.66447639 228.55069923 C263.49531245 248.75132256 257.29418627 268.94214174 251.09547424 289.13371277 C242.37797485 317.53056723 233.67705943 345.9323851 225.0032196 374.34260559 C219.96445725 390.84633584 214.91975121 407.34820169 209.85719299 423.84465027 C209.61743555 424.62591404 209.37767811 425.40717781 209.13065529 426.21211624 C207.91714129 430.16629404 206.70351593 434.12043765 205.48985291 438.0745697 C196.98650072 465.77895502 188.51716189 493.49339623 180.08745289 521.22027683 C179.0055857 524.77869045 177.92362289 528.33707498 176.84156799 531.89543152 C176.62714491 532.60057577 176.41272182 533.30572002 176.19180107 534.03223228 C171.00997096 551.07123753 165.80297174 568.10253834 160.59547424 585.13371277 C153.19330349 609.34329432 145.80923575 633.55830058 138.44307327 657.778862 C132.02907372 678.86843881 125.5982526 699.95279439 119.15184021 721.03248596 C110.9189549 747.95401037 102.71230085 774.88336576 94.53297424 801.82121277 C94.15626713 803.06186241 94.15626713 803.06186241 93.77194977 804.32757568 C92.508634 808.48825597 91.24536556 812.64895063 89.98210144 816.80964661 C89.73367115 817.62787525 89.48524086 818.4461039 89.22928238 819.28912735 C88.72904862 820.93670556 88.22882226 822.58428602 87.72860336 824.23186874 C82.67853652 840.86504854 77.6197677 857.49557336 72.55749512 874.12504196 C71.90773861 876.25948681 71.25801136 878.39394056 70.60829163 880.52839661 C67.3908181 891.09834642 64.17286038 901.6681488 60.95483398 912.2379303 C37.36323512 989.72597532 13.82082884 1067.22867399 -16.25413513 1166.71647644 C-16.52960741 1167.62777722 -16.80507969 1168.53907801 -17.08889961 1169.47799397 C-18.47789755 1174.07299626 -19.86688227 1178.66800255 -21.25584412 1183.26301575 C-30.43302797 1213.62290341 -39.62419956 1243.97852692 -48.82659912 1274.33078003 C-52.04077818 1284.93234493 -55.25265215 1295.53460717 -58.46351624 1306.13717651 C-60.506777 1312.88385047 -62.55126743 1319.63014783 -64.59837341 1326.37565613 C-65.42966893 1329.11529716 -66.26087271 1331.85496601 -67.09202576 1334.59465027 C-67.40483553 1335.62565322 -67.40483553 1335.62565322 -67.72396469 1336.67748451 C-70.59078531 1346.12820011 -73.44486934 1355.58268233 -76.28907394 1365.04022884 C-78.4441664 1372.20592274 -80.60437153 1379.37006374 -82.76765823 1386.533288 C-84.07870303 1390.8756416 -85.38704501 1395.21876679 -86.68858337 1399.5639801 C-100.73537294 1446.44398239 -100.73537294 1446.44398239 -109.90452576 1463.25871277 C-110.37245544 1464.13140808 -110.84038513 1465.00410339 -111.32249451 1465.90324402 C-114.8624505 1472.39154693 -118.70796371 1478.41308832 -123.40452576 1484.13371277 C-123.80606873 1484.63773621 -124.20761169 1485.14175964 -124.62132263 1485.66105652 C-143.33028277 1509.12462457 -168.08367116 1526.57529992 -198.35763454 1530.66814804 C-204.21437463 1531.29585923 -210.05121631 1531.27859915 -215.93603516 1531.27415466 C-217.17539682 1531.27712579 -218.41475848 1531.28009691 -219.69167656 1531.28315806 C-223.11058982 1531.29030141 -226.52945279 1531.29301447 -229.94836986 1531.29375553 C-233.6437014 1531.29561575 -237.33902224 1531.30316756 -241.03434753 1531.30989075 C-249.10227476 1531.32343152 -257.17019698 1531.32949123 -265.23813367 1531.33390141 C-270.27811045 1531.33666926 -275.31808534 1531.34090743 -280.35806084 1531.34540558 C-294.32140386 1531.35758931 -308.28474538 1531.36789258 -322.24809361 1531.37128067 C-323.14045123 1531.37150024 -324.03280886 1531.3717198 -324.95220762 1531.37194602 C-325.84664029 1531.3721643 -326.74107295 1531.37238258 -327.66260964 1531.37260747 C-329.4749378 1531.37305093 -331.28726596 1531.37349749 -333.09959412 1531.37394714 C-334.44804653 1531.37427929 -334.44804653 1531.37427929 -335.82374042 1531.37461814 C-350.40303719 1531.37856957 -364.98228409 1531.39603808 -379.56156159 1531.41930667 C-394.54133152 1531.4430211 -409.5210764 1531.45548245 -424.5008654 1531.45664859 C-432.90707397 1531.45756493 -441.31321742 1531.46330771 -449.71940804 1531.4814682 C-456.87348939 1531.49686994 -464.02748547 1531.50198896 -471.18158025 1531.4937301 C-474.83020328 1531.48982477 -478.47865453 1531.4907476 -482.12725639 1531.50478745 C-486.08491164 1531.51987732 -490.04232543 1531.51165704 -494 1531.50120544 C-495.14951552 1531.50926185 -496.29903105 1531.51731825 -497.48338038 1531.52561879 C-508.03366021 1531.46038926 -514.36110884 1528.92346505 -522.07640076 1521.58683777 C-531.61791683 1511.53302553 -535.32740948 1499.85850602 -535.40452576 1486.13371277 C-534.93029615 1481.59412527 -534.03256575 1477.20854038 -533.02952576 1472.75871277 C-532.75334412 1471.49382019 -532.47716248 1470.22892761 -532.19261169 1468.92570496 C-528.14647359 1450.73838182 -522.60722132 1432.99384541 -516.94749451 1415.25871277 C-515.57853276 1410.96719647 -514.20998729 1406.67554801 -512.84202576 1402.38371277 C-512.47680817 1401.23879364 -512.11159058 1400.09387451 -511.73530579 1398.91426086 C-503.05695962 1371.6522193 -494.89114654 1344.23781932 -486.71702576 1316.82121277 C-486.36931374 1315.65512859 -486.02160172 1314.48904442 -485.66335297 1313.28762436 C-483.90696484 1307.39732494 -482.15083729 1301.50694786 -480.39479065 1295.61654663 C-479.87806982 1293.88330171 -479.87806982 1293.88330171 -479.35091019 1292.11504173 C-478.65785853 1289.79019292 -477.96487292 1287.46532442 -477.27195358 1285.14043617 C-471.13769349 1264.56022649 -464.94966659 1243.99682011 -458.71702576 1223.44621277 C-458.2631738 1221.9493199 -457.80933675 1220.45242251 -457.35551453 1218.95552063 C-455.51402627 1212.88173706 -453.67230081 1206.80802552 -451.82997131 1200.73449707 C-446.18814999 1182.13293654 -440.57058769 1163.5240447 -434.9513092 1144.91566467 C-431.86459289 1134.69392771 -428.77711057 1124.47242211 -425.68968201 1114.25090027 C-425.23260518 1112.73763185 -425.23260518 1112.73763185 -424.76629448 1111.19379234 C-415.5562661 1080.70182224 -406.33930373 1050.21194857 -397.11885071 1019.72312927 C-394.17882388 1010.0014622 -391.2393272 1000.27963513 -388.30046082 990.55761719 C-386.16020654 983.47762646 -384.01938456 976.39780753 -381.87814331 969.31811523 C-380.62552664 965.17647594 -379.37313709 961.03476834 -378.12138367 956.89286804 C-376.96598077 953.06981708 -375.80986561 949.2469822 -374.65322685 945.42430496 C-374.23577985 944.04422288 -373.81857612 942.66406718 -373.40165901 941.28382492 C-371.20825088 934.02289403 -368.99328213 926.76889126 -366.74168396 919.52580261 C-366.53772853 918.86668192 -366.3337731 918.20756123 -366.1236372 917.52846718 C-364.98380182 913.87601017 -363.75740603 910.27506706 -362.40452576 906.69621277 C-360.49338481 901.57191852 -358.98014787 896.35435259 -357.47312927 891.10148621 C-355.7502029 885.16197558 -353.82421067 879.30376931 -351.84202576 873.44621277 C-349.50988105 866.54953297 -347.36454819 859.64469817 -345.42405701 852.62590027 C-344.23866723 848.56559966 -342.8939102 844.57410147 -341.52952576 840.57121277 C-338.96318132 833.02810923 -336.73356823 825.4194137 -334.5868988 817.7474823 C-333.13540746 812.59328458 -331.5742676 807.51302017 -329.84202576 802.44621277 C-328.04734263 797.19320373 -326.47740367 791.92654608 -325.02952576 786.57121277 C-323.17031876 779.69505072 -321.09616989 772.91104131 -318.90452576 766.13371277 C-316.51513132 758.73510299 -314.28768619 751.32052285 -312.24607849 743.8190155 C-308.91915976 731.62392724 -305.18916817 719.54850015 -301.34202576 707.50871277 C-299.16895817 700.70168186 -297.179463 693.8633023 -295.2966156 686.97087097 C-291.94179208 674.72803008 -288.20582648 662.59939103 -284.34202576 650.50871277 C-282.16026357 643.68077446 -280.17681672 636.81980499 -278.29881287 629.90275574 C-276.80068572 624.43408451 -275.13894926 619.03171399 -273.40452576 613.63371277 C-271.46918248 607.60114797 -269.63826127 601.5573548 -267.96702576 595.44621277 C-260.37949449 567.70895079 -260.37949449 567.70895079 -255.90452576 554.69621277 C-253.32296896 547.15401741 -251.24533743 539.4900935 -249.13108826 531.80583191 C-246.96652361 523.99602202 -244.58131754 516.28300692 -242.0723114 508.57804871 C-240.33334912 503.18669879 -238.72253264 497.78045011 -237.23890686 492.31365967 C-232.53495074 474.99054817 -227.12394832 457.88759219 -221.76792908 440.75804138 C-218.74933142 431.10365562 -215.74448326 421.44498632 -212.74046326 411.78605652 C-212.43329376 410.79871017 -212.12612427 409.81136383 -211.80964661 408.7940979 C-205.86084236 389.66678663 -200.0149499 370.5090149 -194.19740295 351.34144592 C-182.40741561 312.49743129 -170.31956972 273.75333783 -158.0194397 235.06797791 C-157.42378725 233.19430146 -156.82851777 231.32050327 -156.23326111 229.44670105 C-151.3253986 213.99770569 -146.38589797 198.5591647 -141.40452576 183.13371277 C-140.92073456 181.63496613 -140.92073456 181.63496613 -140.4271698 180.10594177 C-135.47264536 164.76432437 -130.46705051 149.440032 -125.40452576 134.13371277 C-125.05802979 133.08502014 -124.71153381 132.03632751 -124.35453796 130.95585632 C-122.24697627 124.5829422 -120.12490529 118.21512036 -117.98484802 111.8530426 C-117.32162527 109.87747319 -116.661632 107.90081575 -116.00535583 105.92292786 C-106.67195264 77.83344277 -94.96912097 52.73109415 -74.40452576 31.13371277 C-73.42032654 30.05283386 -73.42032654 30.05283386 -72.41624451 28.95011902 C-53.18101328 8.47921983 -27.52559281 -0.03708187 0 0 Z " fill="#FBFBFB" transform="translate(1323.404525756836,851.8662872314453)"/>
<path d="M0 0 C3.78971636 0.01981367 7.57946299 0.02767071 11.36921644 0.03727007 C18.57175996 0.05743396 25.77420808 0.08877806 32.97668779 0.12485564 C38.54275085 0.15251821 44.10881466 0.17563159 49.67491102 0.19544268 C66.74960232 0.2566655 83.82403842 0.3371263 100.89848661 0.44748354 C102.44094539 0.45743552 103.98340424 0.46737534 105.52586317 0.47730303 C106.29051256 0.48222458 107.05516195 0.48714613 107.84298253 0.49221683 C114.20294328 0.53239235 120.56292986 0.5634082 126.92294705 0.59306324 C133.19885203 0.6228595 139.47468723 0.66003707 145.75051773 0.70271027 C149.43644859 0.7275968 153.12233183 0.74949841 156.80832243 0.76326418 C160.85523609 0.77855661 164.9018979 0.80917097 168.94871473 0.84107256 C170.12340315 0.84323275 171.29809156 0.84539293 172.5083766 0.84761858 C184.05278526 0.96370778 196.95518347 1.48365146 205.93064833 9.71460772 C211.35025124 15.93940878 210.79767318 23.00475141 210.43525648 30.80478716 C210.13358997 34.35852087 209.30662762 37.72552492 208.35252333 41.14820147 C208.13727003 41.94188631 207.92201674 42.73557116 207.70024061 43.55330706 C204.03118646 56.80335945 199.81688709 69.90402734 195.71164656 83.02392626 C193.72051764 89.39361875 191.74072223 95.76685192 189.75953245 102.13964128 C189.25860215 103.75087923 188.75753635 105.36207505 188.25633574 106.97322893 C183.64213171 121.80745002 179.10482551 136.66395053 174.61033583 151.53492022 C170.37230909 165.55339471 166.12116187 179.56711672 161.79392958 193.55835772 C150.72172107 229.364918 139.87711234 265.2358897 129.12811899 301.1408391 C127.51042598 306.54439894 125.89250382 311.94789013 124.27439833 317.35132647 C123.94936386 318.43679514 123.6243294 319.52226381 123.2894454 320.64062548 C115.70340451 345.9702317 108.05326412 371.28040308 100.40167189 396.59026766 C87.79393852 438.28147928 87.79393852 438.28147928 75.38951063 480.03348589 C64.83624506 515.86107953 53.93791594 551.586932 43.13051939 587.33843279 C38.7609885 601.79326393 34.39762462 616.24991689 30.04783583 630.71070147 C29.57889425 632.26955004 29.10995099 633.82839811 28.64100599 635.38724566 C28.41322147 636.14445217 28.18543695 636.90165869 27.95074987 637.68181086 C27.7257814 638.4296553 27.50081293 639.17749975 27.26902723 639.94800615 C27.04709511 640.68576469 26.82516298 641.42352324 26.59650564 642.1836381 C16.61184719 675.37316238 6.51365364 708.52721794 -3.63497972 741.66693926 C-6.86286978 752.20826112 -10.08318841 762.7518768 -13.29982042 773.29663897 C-32.83076722 837.31647786 -52.61520799 901.25593117 -72.57323885 965.14388895 C-74.24309962 970.48944402 -75.9118432 975.83534684 -77.58009386 981.18140459 C-89.10924218 1018.12357714 -100.71629418 1055.03894847 -112.68598986 1091.8413167 C-113.78153195 1095.21181491 -114.8740317 1098.58328958 -115.96632433 1101.95484209 C-117.7550034 1107.47000418 -119.55703325 1112.98064567 -121.36900377 1118.4881978 C-122.03455313 1120.51565081 -122.69668626 1122.5442294 -123.35490465 1124.57407427 C-133.29493065 1155.18496525 -146.57113468 1180.75097877 -176.20216417 1196.28492022 C-189.80857777 1203.13153257 -204.94350792 1206.33297097 -220.12432909 1206.28690386 C-220.92741355 1206.28846385 -221.73049801 1206.29002384 -222.55791837 1206.2916311 C-225.2293104 1206.29559596 -227.90064484 1206.29246878 -230.57203722 1206.28931475 C-232.49658284 1206.29067101 -234.42112821 1206.29245222 -236.34567308 1206.29462481 C-241.56599479 1206.2991787 -246.78629669 1206.29741625 -252.00661874 1206.29424572 C-257.49968295 1206.29170394 -262.99274552 1206.29406542 -268.4858098 1206.29563189 C-277.73200326 1206.2974515 -286.97818873 1206.29505608 -296.22438097 1206.29029131 C-306.84059332 1206.2848829 -317.45678637 1206.28658709 -328.07299823 1206.29211771 C-337.23362363 1206.29669547 -346.3942433 1206.29727584 -355.55486947 1206.29467905 C-361.0045262 1206.29313729 -366.45417394 1206.29286296 -371.90383005 1206.29621553 C-385.19123612 1206.3030498 -398.47772065 1206.27713846 -411.76466417 1206.15992022 C-412.54087004 1206.15348088 -413.31707591 1206.14704155 -414.11680317 1206.14040709 C-418.90280249 1206.09714121 -423.68604827 1206.01250932 -428.470963 1205.90161943 C-429.58500096 1205.88803455 -430.69903893 1205.87444967 -431.84683561 1205.86045313 C-441.11289989 1205.57655047 -450.46961421 1203.55403123 -457.32716417 1196.89429522 C-463.1280308 1189.89542353 -463.51488932 1182.1900723 -462.99589586 1173.40616655 C-462.20138986 1165.68812317 -459.82353375 1158.17617036 -457.76466417 1150.72242022 C-457.22350983 1148.71342108 -456.68341881 1146.70413528 -456.14430285 1144.69458818 C-454.38457471 1138.17364128 -452.57848574 1131.66599611 -450.76466417 1125.15992022 C-450.45772631 1124.05561663 -450.15078844 1122.95131304 -449.83454943 1121.8135457 C-435.41293534 1069.96523902 -419.48617132 1018.57739641 -403.48732042 967.19995928 C-380.52385701 893.45423302 -358.0310472 819.56274613 -333.3159337 738.15186357 C-329.79767232 726.56166578 -326.27788462 714.97193258 -322.75685167 703.38257647 C-322.50952225 702.56849636 -322.26219282 701.75441626 -322.00736856 700.91566706 C-320.75887838 696.80631211 -319.51036035 692.69696562 -318.26182604 688.58762407 C-315.76654069 680.37478544 -313.27145984 672.16188467 -310.77638292 663.94898272 C-310.52923603 663.13547035 -310.28208914 662.32195799 -310.02745295 661.48379374 C-306.492271 649.84730877 -302.95760638 638.21066675 -299.42324305 626.57393312 C-287.50257509 587.32593565 -275.57176538 548.08104678 -263.6252141 508.84091997 C-260.59175936 498.87709638 -257.55886706 488.91310175 -254.52638292 478.94898272 C-254.30947109 478.23625578 -254.09255926 477.52352884 -253.86907434 476.78920412 C-252.77277046 473.18696872 -251.67647586 469.5847305 -250.58018541 465.98249102 C-248.610418 459.51015826 -246.64056845 453.03785051 -244.67072535 446.56554079 C-243.57703495 442.97200162 -242.48334983 439.37846083 -241.38966417 435.78492022 C-240.9521642 434.34742021 -240.5146642 432.90992021 -240.07716417 431.47242022 C-239.86060167 430.76085772 -239.64403917 430.04929522 -239.42091417 429.31617022 C-238.76466417 427.15992022 -238.10841417 425.00367022 -237.45216417 422.84742022 C-237.23560199 422.13585866 -237.0190398 421.4242971 -236.79591513 420.69117308 C-236.35841215 419.25366348 -235.92090897 417.81615394 -235.48340559 416.37864447 C-234.38969947 412.78504183 -233.29599687 409.19143812 -232.2023015 405.5978322 C-230.23303129 399.1273214 -228.26373639 392.65681812 -226.29430914 386.18635511 C-225.19977457 382.59030922 -224.10526076 378.99425701 -223.01075792 375.39820147 C-222.68573195 374.33031106 -222.68573195 374.33031106 -222.3541398 373.24084711 C-219.30220534 363.21340445 -216.25142961 353.18560986 -213.20138788 343.15759134 C-202.03922774 306.45900294 -190.84877958 269.76915226 -179.63328409 233.08682871 C-175.86478786 220.76125601 -172.09961779 208.43467022 -168.33618021 196.10755205 C-165.76729708 187.69327038 -163.19743486 179.27929133 -160.62379503 170.86646318 C-160.39871295 170.1306716 -160.17363087 169.39488001 -159.94172812 168.63679171 C-159.04645415 165.71018857 -158.15117912 162.78358577 -157.25573969 159.85703325 C-154.57030111 151.07957818 -151.89382262 142.29949138 -149.22990465 133.51548052 C-147.78796186 128.76415954 -146.34043947 124.01454996 -144.8918004 119.2652669 C-144.24044754 117.1250338 -143.59158539 114.98404054 -142.94563341 112.84217119 C-118.15254678 30.6535801 -118.15254678 30.6535801 -81.61232042 10.41382647 C-56.59776066 -1.98523221 -27.20160448 -0.15820011 0 0 Z " fill="#FAFAFA" transform="translate(1890.7646641731262,1046.8400797843933)"/>
<path d="M0 0 C2.80169874 0.02233464 5.60340772 0.034417 8.40516567 0.04671192 C15.87522698 0.07994572 23.34493232 0.13703194 30.81474972 0.20510578 C36.41918669 0.25563307 42.02362915 0.29488063 47.62818527 0.32949448 C55.68035737 0.38002222 63.73220204 0.44970614 71.78409958 0.53298569 C74.87976385 0.56478279 77.97539278 0.59074215 81.07114792 0.61184311 C84.72490749 0.63752256 88.37822375 0.67794134 92.03170776 0.72944069 C94.00911405 0.75397645 95.98668048 0.76433655 97.96421432 0.77421188 C104.615627 0.88442234 109.88351131 1.29319186 115.88306808 4.2665062 C119.75682353 8.33394941 120.20347987 11.39111716 120.10380173 16.7213707 C119.70676203 21.29937616 118.42118457 25.58619903 117.12916183 29.98134995 C116.83746109 31.00770554 116.54576035 32.03406113 116.24522018 33.0915184 C115.28236079 36.46592803 114.30196435 39.83494517 113.32056808 43.2040062 C112.63266091 45.59550189 111.94541597 47.98718815 111.25880051 50.37905502 C104.67502138 73.24262025 97.84244741 96.03135924 90.93458176 118.79873276 C89.26225927 124.31386362 87.59460179 129.83040458 85.92629814 135.34675217 C74.14966848 174.28261901 62.31325751 213.20041451 50.48559189 252.12080002 C46.94564451 263.76945772 43.40628932 275.41829518 39.86744308 287.06728745 C39.62040886 287.88046118 39.37337463 288.69363491 39.11885452 289.53145027 C37.87224074 293.6349969 36.62563781 297.73854683 35.37903976 301.84209824 C33.13052809 309.24373019 30.88192003 316.64533287 28.63331985 324.04693794 C27.38323204 328.16179285 26.13315037 332.27664961 24.88306808 336.3915062 C24.38306811 338.03733954 23.88306811 339.68317287 23.38306808 341.3290062 C23.01181808 342.55103745 23.01181808 342.55103745 22.63306808 343.7977562 C21.88306808 346.2665062 21.13306808 348.7352562 20.38306808 351.2040062 C20.01181667 352.42604217 20.01181667 352.42604217 19.63306522 353.67276573 C19.13307485 355.3185673 18.63308439 356.96436885 18.13309383 358.61017036 C16.88294584 362.72523944 15.63279939 366.84030898 14.3826561 370.95537949 C12.13442491 378.35582965 9.8861831 385.75627658 7.63788319 393.15670586 C6.39017674 397.26361614 5.14247939 401.37052919 3.89478683 405.4774437 C3.64765127 406.2909164 3.40051571 407.10438911 3.14589119 407.94251251 C-0.38930182 419.57903765 -3.9239776 431.2157198 -7.45835304 442.85249329 C-20.87620728 487.0298759 -34.31025975 531.20229981 -47.75757217 575.37072372 C-48.39852051 577.47595762 -49.0394654 579.58119257 -49.68040848 581.68642807 C-49.89206807 582.38164 -50.10372766 583.07685192 -50.32180119 583.79313087 C-51.39497292 587.31809329 -52.46807484 590.84307694 -53.54104996 594.36809921 C-53.75449964 595.06933851 -53.96794931 595.77057781 -54.18786716 596.49306679 C-54.61990116 597.91241447 -55.05193279 599.33176287 -55.48396206 600.75111198 C-56.7764484 604.99710132 -58.06950254 609.24291726 -59.36297131 613.48860741 C-64.12033089 629.10499951 -68.86330379 644.72561718 -73.58400154 660.35313416 C-75.18509805 665.65158955 -76.78864615 670.94930365 -78.39218998 676.24701881 C-79.67472913 680.48514352 -80.95557994 684.7237613 -82.23207474 688.96371078 C-87.09129338 705.10087979 -92.00398435 721.21791724 -97.27935791 737.22481155 C-97.73936045 738.62118015 -98.19720622 740.01826162 -98.65259552 741.41614151 C-108.50342682 771.5754401 -124.88029152 794.55606051 -153.48314285 809.13296127 C-169.47173603 816.88935788 -186.2030559 819.41063364 -203.8217659 819.42763901 C-205.06522781 819.43260391 -206.30868973 819.43756882 -207.58983231 819.44268417 C-210.97624212 819.45471998 -214.36259081 819.46223086 -217.74901462 819.46669483 C-219.87031929 819.46964133 -221.99161875 819.47374882 -224.11292076 819.47819901 C-230.76682044 819.49184108 -237.42070799 819.50152555 -244.07462066 819.5054009 C-251.72550658 819.50988321 -259.376214 819.52745292 -267.02704567 819.55640149 C-272.96364368 819.57807624 -278.90019164 819.58810814 -284.83682877 819.58944201 C-288.37277093 819.59048527 -291.90854455 819.59629092 -295.44444466 819.61426163 C-299.39058857 819.63393174 -303.33651182 819.6294303 -307.2827034 819.62295151 C-309.01693306 819.63677368 -309.01693306 819.63677368 -310.78619766 819.65087509 C-320.80463453 819.59950707 -329.18620331 818.20955001 -336.55443192 811.0790062 C-340.32729406 806.7024861 -340.5325657 801.83400193 -340.34202957 796.28237534 C-339.22458299 781.31077277 -333.80337016 766.85807015 -329.36270142 752.63365555 C-328.2978435 749.21635491 -327.24185629 745.79631678 -326.18553543 742.37636948 C-325.74720736 740.95751227 -325.30886803 739.53865854 -324.87051773 738.1198082 C-324.65102148 737.40930439 -324.43152523 736.69880058 -324.20537758 735.96676636 C-323.53005974 733.78209569 -322.8537483 731.59773479 -322.17718887 729.41344833 C-319.12334357 719.55053289 -316.10153825 709.67829127 -313.10521317 699.7977562 C-312.89932005 699.11893576 -312.69342693 698.44011532 -312.48129463 697.74072456 C-311.64280701 694.97604118 -310.8044904 692.211306 -309.9663763 689.44650936 C-300.4261385 657.97673102 -290.73033409 626.55612579 -280.99290848 595.14687729 C-279.88835922 591.5839067 -278.78386997 588.02091751 -277.67943192 584.45791245 C-277.40606758 583.57606026 -277.13270325 582.69420807 -276.85105515 581.78563309 C-271.05974117 563.10118977 -265.30298859 544.40617852 -259.55508041 525.70834351 C-257.32346676 518.44897045 -255.09136274 511.18974815 -252.85911942 503.9305687 C-252.49726358 502.75378901 -252.49726358 502.75378901 -252.12809753 501.55323601 C-246.90816229 484.5786578 -241.67155085 467.60924502 -236.42943192 450.6415062 C-236.21569302 449.94966358 -236.00195412 449.25782097 -235.78173828 448.54501343 C-233.8532707 442.30294118 -231.92458642 436.06093592 -229.9956398 429.81901169 C-226.90851712 419.82923986 -223.82285305 409.83901829 -220.73802567 399.84853745 C-220.40411253 398.76713549 -220.40411253 398.76713549 -220.06345367 397.66388702 C-219.16674415 394.7598241 -218.27003535 391.85576094 -217.37333107 388.9516964 C-213.89669536 377.69239199 -210.41917429 366.43336101 -206.94162941 355.17433739 C-205.57304509 350.74333926 -204.20458403 346.31230307 -202.8361702 341.88125229 C-193.18132899 310.61911616 -183.50346429 279.36419495 -173.79751968 248.11788559 C-171.67593513 241.28774204 -169.55531634 234.45730031 -167.43626785 227.62636948 C-156.92749075 193.75090652 -146.39439501 159.88325283 -135.76935196 126.04404831 C-135.06451606 123.79863157 -134.36024042 121.55303984 -133.65611649 119.30739975 C-119.42968789 73.94536265 -119.42968789 73.94536265 -115.17943192 65.3290062 C-114.84081131 64.62993149 -114.5021907 63.93085678 -114.15330887 63.21059799 C-101.81009534 38.19805844 -82.37343549 17.53249378 -56.11693192 7.2665062 C-55.20943192 6.90943588 -54.30193192 6.55236557 -53.36693192 6.18447495 C-35.84610759 -0.17158497 -18.39616701 -0.15966556 0 0 Z " fill="#F8F8F8" transform="translate(2326.116931915283,1255.7334938049316)"/>
</svg>
